<svg width="253" height="92" viewBox="0 0 253 92" fill="none" xmlns="http://www.w3.org/2000/svg">
<g clip-path="url(#clip0_5_15)">
<rect width="253" height="92" fill="url(#paint0_linear_5_15)"/>
<path d="M18.1797 51.1055C18.099 48.4414 18.321 45.8379 18.8457 43.2949C19.3704 40.7116 20.1374 38.2695 21.1465 35.9688C22.196 33.668 23.4473 31.5488 24.9004 29.6113C26.3939 27.6738 28.0286 26.0189 29.8047 24.6465C31.2578 23.4759 32.9128 22.5273 34.7695 21.8008C36.6667 21.0339 38.3822 20.5898 39.916 20.4688C40.36 20.388 40.7233 20.6504 41.0059 21.2559C41.2884 21.8613 41.1471 22.7493 40.582 23.9199C38.6849 24.041 36.8483 24.6061 35.0723 25.6152C33.2962 26.6243 31.6413 27.8353 30.1074 29.248C27.5645 31.6699 25.526 34.6973 23.9922 38.3301C22.4987 41.9225 21.6914 46.0397 21.5703 50.6816C21.4896 53.2246 21.873 55.4043 22.7207 57.2207C23.5684 58.9967 24.6986 60.3893 26.1113 61.3984C27.5241 62.4076 29.1387 63.013 30.9551 63.2148C32.8118 63.3763 34.6888 63.1139 36.5859 62.4277C37.6354 62.0645 38.6445 61.5599 39.6133 60.9141C40.6224 60.2682 41.7324 59.2389 42.9434 57.8262C43.2663 57.6647 43.6094 57.6445 43.9727 57.7656C44.3763 57.8867 44.6992 58.1087 44.9414 58.4316C45.1836 58.7142 45.2845 59.0775 45.2441 59.5215C45.2441 59.9251 45.0221 60.3691 44.5781 60.8535C44.2552 61.1764 43.7708 61.6406 43.125 62.2461C42.5195 62.8112 41.7728 63.4167 40.8848 64.0625C40.0371 64.668 39.0885 65.2533 38.0391 65.8184C36.9896 66.3431 35.8997 66.6862 34.7695 66.8477C33.9219 66.9688 32.9329 67.0293 31.8027 67.0293C30.6725 67.0293 29.502 66.8678 28.291 66.5449C27.0801 66.222 25.8893 65.7174 24.7188 65.0312C23.5482 64.3451 22.4785 63.3965 21.5098 62.1855C20.5814 60.9746 19.8145 59.4609 19.209 57.6445C18.6035 55.8281 18.2604 53.6484 18.1797 51.1055ZM46.8789 42.1445C46.7578 40.0456 46.9395 37.7448 47.4238 35.2422C47.9082 32.6992 48.6953 30.3379 49.7852 28.1582C50.9154 25.9785 52.3483 24.1621 54.084 22.709C55.8197 21.2559 57.8783 20.5697 60.2598 20.6504C61.5111 20.7715 62.6009 21.1751 63.5293 21.8613C64.498 22.5475 65.3053 23.375 65.9512 24.3438C66.597 25.3125 67.0814 26.362 67.4043 27.4922C67.7676 28.582 67.9492 29.6315 67.9492 30.6406C67.9896 31.6497 67.8483 32.5579 67.5254 33.3652C67.2428 34.1322 66.7988 34.6367 66.1934 34.8789C65.3053 35.2018 64.0339 35.4238 62.3789 35.5449C60.7643 35.666 59.1296 35.7467 57.4746 35.7871C55.86 35.8275 54.3867 35.8678 53.0547 35.9082C51.763 35.9082 50.9961 35.9284 50.7539 35.9688C50.3099 38.1081 50.1484 40.3281 50.2695 42.6289C50.431 44.9297 50.7943 47.1497 51.3594 49.2891C51.9648 51.4284 52.752 53.4264 53.7207 55.2832C54.7298 57.0996 55.8802 58.6335 57.1719 59.8848C58.5039 61.1361 59.957 62.0039 61.5312 62.4883C63.1055 62.9727 64.7604 62.9323 66.4961 62.3672C66.819 62.2461 67.1016 62.2865 67.3438 62.4883C67.6263 62.6901 67.8281 62.9727 67.9492 63.3359C68.0703 63.6589 68.0905 64.0221 68.0098 64.4258C67.929 64.8294 67.707 65.1927 67.3438 65.5156C64.7201 66.2018 62.3991 66.2826 60.3809 65.7578C58.3626 65.1927 56.6068 64.2643 55.1133 62.9727C53.6198 61.6406 52.3685 60.0462 51.3594 58.1895C50.3503 56.3327 49.5228 54.4355 48.877 52.498C48.2311 50.5202 47.7467 48.623 47.4238 46.8066C47.1413 44.9499 46.9596 43.3958 46.8789 42.1445ZM59.957 23.9805C59.1094 23.9401 58.2214 24.263 57.293 24.9492C56.3646 25.6354 55.5169 26.4427 54.75 27.3711C53.9831 28.2995 53.3372 29.248 52.8125 30.2168C52.3281 31.1855 52.0859 31.9525 52.0859 32.5176C52.4492 32.5579 53.1758 32.5983 54.2656 32.6387C55.3958 32.6387 56.6068 32.6185 57.8984 32.5781C59.2305 32.4974 60.4818 32.3965 61.6523 32.2754C62.8229 32.1543 63.6302 31.9727 64.0742 31.7305C64.3971 30.9232 64.4375 30.0352 64.1953 29.0664C63.9935 28.0977 63.6504 27.2298 63.166 26.4629C62.6816 25.6556 62.1367 25.0098 61.5312 24.5254C60.9258 24.041 60.401 23.8594 59.957 23.9805ZM184.199 64.6074C183.674 65.4147 183.17 65.8789 182.686 66C182.201 66.1615 181.777 66.1615 181.414 66C180.97 65.8385 180.566 65.4954 180.203 64.9707L180.385 34.7578C180.385 34.2331 180.587 33.8496 180.99 33.6074C181.394 33.3249 181.818 33.2038 182.262 33.2441C182.746 33.2441 183.19 33.4258 183.594 33.7891C183.997 34.112 184.199 34.5762 184.199 35.1816V64.6074ZM182.141 28.2793L178.447 30.459C177.842 30.459 177.539 30.1764 177.539 29.6113L179.779 26.4023L177.66 24.1621C177.458 24.041 177.337 23.8997 177.297 23.7383C177.297 23.5768 177.337 23.4154 177.418 23.2539C177.499 23.0924 177.62 22.9915 177.781 22.9512C177.943 22.8704 178.124 22.8906 178.326 23.0117L180.869 23.3145L182.564 20.5898C182.766 20.2669 183.049 20.1458 183.412 20.2266C183.775 20.3073 183.957 20.5898 183.957 21.0742L184.381 23.7988L187.408 24.2227C187.771 24.2227 187.993 24.2832 188.074 24.4043C188.155 24.5254 188.155 24.6868 188.074 24.8887C188.034 25.0501 187.933 25.2116 187.771 25.373C187.65 25.4941 187.549 25.5547 187.469 25.5547L184.986 26.6445L185.773 30.0957H185.834C185.834 30.1361 185.834 30.2168 185.834 30.3379C185.834 30.459 185.814 30.5801 185.773 30.7012C185.773 30.8223 185.713 30.903 185.592 30.9434C185.471 30.9434 185.269 30.8828 184.986 30.7617L182.141 28.2793ZM215.199 60.9746C213.141 62.9928 211.042 64.5872 208.902 65.7578C206.763 66.9284 204.321 67.5137 201.576 67.5137C199.84 67.5137 198.246 67.2917 196.793 66.8477C195.38 66.4036 194.149 65.7376 193.1 64.8496C192.09 63.9616 191.303 62.8516 190.738 61.5195C190.173 60.1875 189.891 58.6133 189.891 56.7969C189.85 54.819 190.153 52.9622 190.799 51.2266C191.485 49.4505 192.413 47.8561 193.584 46.4434C194.755 45.0306 196.107 43.8398 197.641 42.8711C199.215 41.862 200.87 41.1354 202.605 40.6914C204.341 40.207 206.117 40.0254 207.934 40.1465C209.75 40.2676 211.506 40.7318 213.201 41.5391C213.201 41.0143 213.201 40.2474 213.201 39.2383C213.201 38.1888 213.181 37.0384 213.141 35.7871C213.141 34.5358 213.1 33.2643 213.02 31.9727C212.939 30.6406 212.798 29.4297 212.596 28.3398C212.434 27.25 212.192 26.362 211.869 25.6758C211.587 24.9896 211.223 24.6465 210.779 24.6465C209.77 24.7676 208.822 25.1309 207.934 25.7363C207.046 26.3014 206.238 27.0078 205.512 27.8555C204.785 28.6628 204.119 29.5306 203.514 30.459C202.949 31.3874 202.464 32.2552 202.061 33.0625C201.657 33.8294 201.334 34.4753 201.092 35C200.89 35.5247 200.769 35.8073 200.729 35.8477C200.527 36.1302 200.244 36.3118 199.881 36.3926C199.558 36.4733 199.235 36.4531 198.912 36.332C198.63 36.2109 198.367 35.9889 198.125 35.666C197.923 35.3431 197.822 34.9193 197.822 34.3945C198.105 32.9414 198.71 31.4277 199.639 29.8535C200.567 28.2793 201.637 26.8464 202.848 25.5547C204.099 24.263 205.431 23.1934 206.844 22.3457C208.257 21.498 209.568 21.0742 210.779 21.0742C212.313 20.9531 213.504 21.5182 214.352 22.7695C215.24 23.9805 215.885 25.5749 216.289 27.5527C216.693 29.4902 216.935 31.6699 217.016 34.0918C217.137 36.4733 217.197 38.7943 217.197 41.0547C217.238 43.2747 217.278 45.2728 217.318 47.0488C217.399 48.8249 217.621 50.0762 217.984 50.8027C218.549 51.1257 218.913 51.4284 219.074 51.7109C219.276 51.9935 219.377 52.377 219.377 52.8613C219.377 53.4668 219.215 54.0117 218.893 54.4961C218.57 54.9401 218.408 55.4648 218.408 56.0703C218.489 58.3711 218.65 60.571 218.893 62.6699C219.135 64.7689 219.619 66.9486 220.346 69.209C220.346 70.0566 220.144 70.6419 219.74 70.9648C219.377 71.3281 218.933 71.4694 218.408 71.3887C217.924 71.3079 217.439 71.0456 216.955 70.6016C216.511 70.1576 216.229 69.5723 216.107 68.8457C216.067 68.5632 215.986 68.0384 215.865 67.2715C215.785 66.5449 215.684 65.778 215.562 64.9707C215.482 64.123 215.401 63.3359 215.32 62.6094C215.24 61.8424 215.199 61.2975 215.199 60.9746ZM193.463 56.373C193.463 57.6647 193.705 58.7747 194.189 59.7031C194.714 60.6315 195.36 61.3984 196.127 62.0039C196.934 62.569 197.822 62.9928 198.791 63.2754C199.8 63.5176 200.789 63.6185 201.758 63.5781C203.372 63.5781 204.805 63.3359 206.057 62.8516C207.308 62.3672 208.438 61.7012 209.447 60.8535C210.456 60.0059 211.344 59.0169 212.111 57.8867C212.878 56.7161 213.605 55.4648 214.291 54.1328C214.291 52.5182 214.19 51.0853 213.988 49.834C213.786 48.5423 213.383 47.4525 212.777 46.5645C212.212 45.6764 211.405 45.0104 210.355 44.5664C209.346 44.082 207.994 43.8398 206.299 43.8398C204.644 43.8398 203.049 44.1829 201.516 44.8691C199.982 45.515 198.609 46.4232 197.398 47.5938C196.228 48.724 195.279 50.056 194.553 51.5898C193.826 53.0833 193.463 54.6777 193.463 56.373ZM227.793 73.1445C227.107 73.1042 226.582 72.9225 226.219 72.5996C225.855 72.3171 225.593 71.9538 225.432 71.5098C225.311 71.1061 225.27 70.6621 225.311 70.1777C225.351 69.7337 225.432 69.3099 225.553 68.9062L225.25 19.8633C225.25 19.4596 225.411 19.0762 225.734 18.7129C226.098 18.3496 226.481 18.1074 226.885 17.9863C227.329 17.8652 227.732 17.9258 228.096 18.168C228.499 18.4102 228.762 18.9349 228.883 19.7422V69.5723L234.15 69.6934C234.635 70.097 234.897 70.5007 234.938 70.9043C234.978 71.3483 234.897 71.7318 234.695 72.0547C234.493 72.3776 234.231 72.64 233.908 72.8418C233.626 73.084 233.383 73.2051 233.182 73.2051C232.576 73.2051 232.051 73.2051 231.607 73.2051C231.204 73.2051 230.8 73.1849 230.396 73.1445C230.033 73.1445 229.65 73.1445 229.246 73.1445C228.842 73.1445 228.358 73.1445 227.793 73.1445Z" fill="white"/>
<path d="M71.2188 26.0391C71.582 25.6354 71.9655 25.3327 72.3691 25.1309C72.8132 24.8887 73.2168 24.7676 73.5801 24.7676C73.9837 24.7676 74.3066 24.8887 74.5488 25.1309C74.8314 25.3327 74.9928 25.6758 75.0332 26.1602L75.0938 30.0352C77.2734 28.7435 79.5137 27.4922 81.8145 26.2812C84.1556 25.0703 86.4564 24.0208 88.7168 23.1328C91.0176 22.2044 93.2578 21.5182 95.4375 21.0742C97.6576 20.5898 99.7565 20.4284 101.734 20.5898C104.237 20.8724 106.094 21.8411 107.305 23.4961C108.516 25.151 108.919 27.1289 108.516 29.4297C108.193 31.0039 107.527 32.457 106.518 33.7891C105.549 35.1211 104.459 36.332 103.248 37.4219C102.037 38.4714 100.806 39.3997 99.5547 40.207C98.3438 41.0143 97.375 41.7005 96.6484 42.2656L103.248 66.1816C103.167 66.5449 102.945 66.8477 102.582 67.0898C102.219 67.332 101.815 67.4935 101.371 67.5742C100.927 67.6549 100.503 67.6348 100.1 67.5137C99.696 67.4329 99.4336 67.2109 99.3125 66.8477L93.1367 43.7188C90.1901 45.0911 87.6875 46.2214 85.6289 47.1094C83.6107 47.9974 81.9355 48.724 80.6035 49.2891C79.2715 49.8138 78.2422 50.2174 77.5156 50.5C76.8294 50.7826 76.3047 50.9844 75.9414 51.1055C75.6185 51.2266 75.4167 51.3073 75.3359 51.3477C75.2552 51.388 75.2148 51.4688 75.2148 51.5898L75.6992 68.0586C75.6185 68.4219 75.3965 68.6842 75.0332 68.8457C74.6699 69.0475 74.2663 69.1686 73.8223 69.209C73.4186 69.2493 73.0352 69.209 72.6719 69.0879C72.349 68.9668 72.1673 68.7852 72.127 68.543L71.2188 26.0391ZM75.2148 46.625C76.0221 46.3424 77.2129 45.9388 78.7871 45.4141C80.4017 44.849 82.1777 44.1829 84.1152 43.416C86.0527 42.6491 88.071 41.7812 90.1699 40.8125C92.2689 39.8034 94.2467 38.7135 96.1035 37.543C98.0007 36.332 99.6758 35.0404 101.129 33.668C102.582 32.2552 103.632 30.7617 104.277 29.1875C104.6 27.8958 104.52 26.7454 104.035 25.7363C103.591 24.7272 102.784 24.1419 101.613 23.9805C99.8776 23.7383 97.9199 23.9199 95.7402 24.5254C93.6009 25.0905 91.3405 25.918 88.959 27.0078C86.6178 28.0573 84.2565 29.2884 81.875 30.7012C79.4935 32.1139 77.2331 33.5065 75.0938 34.8789L75.2148 46.625ZM116.871 68.4219C116.75 69.0273 116.508 69.4108 116.145 69.5723C115.822 69.7741 115.479 69.8346 115.115 69.7539C114.752 69.7135 114.409 69.5723 114.086 69.3301C113.763 69.0879 113.561 68.8255 113.48 68.543L113.238 19.8633C113.238 19.5 113.38 19.1569 113.662 18.834C113.985 18.4707 114.328 18.2083 114.691 18.0469C115.095 17.8854 115.479 17.8854 115.842 18.0469C116.205 18.168 116.488 18.5312 116.689 19.1367L128.193 19.2578C128.678 19.6615 128.98 20.0651 129.102 20.4688C129.223 20.8724 129.243 21.2357 129.162 21.5586C129.081 21.8815 128.92 22.1641 128.678 22.4062C128.476 22.6081 128.274 22.709 128.072 22.709C127.709 22.709 126.962 22.709 125.832 22.709C124.702 22.709 123.511 22.709 122.26 22.709C121.008 22.709 119.858 22.709 118.809 22.709C117.759 22.6686 117.113 22.6484 116.871 22.6484V42.5078L126.074 42.6895C126.559 43.0931 126.861 43.4967 126.982 43.9004C127.104 44.304 127.104 44.6673 126.982 44.9902C126.902 45.3132 126.74 45.5755 126.498 45.7773C126.296 45.9792 126.094 46.0801 125.893 46.0801C125.408 46.0801 124.722 46.1003 123.834 46.1406C122.986 46.1406 122.098 46.1406 121.17 46.1406C120.242 46.1406 119.374 46.1406 118.566 46.1406C117.759 46.1003 117.194 46.0801 116.871 46.0801V64.8496L129.102 64.9102C129.586 65.3138 129.868 65.7174 129.949 66.1211C130.07 66.5247 130.07 66.888 129.949 67.2109C129.868 67.5339 129.707 67.7962 129.465 67.998C129.223 68.2402 129.001 68.3613 128.799 68.3613C128.314 68.3613 127.487 68.3613 126.316 68.3613C125.146 68.4017 123.915 68.4219 122.623 68.4219C121.331 68.4219 120.12 68.4219 118.99 68.4219C117.9 68.4219 117.194 68.4219 116.871 68.4219ZM150.111 69.5723C148.618 69.9355 147.165 69.875 145.752 69.3906C144.38 68.9466 143.108 68.2604 141.938 67.332C140.807 66.444 139.818 65.4349 138.971 64.3047C138.163 63.1745 137.578 62.125 137.215 61.1562C137.053 60.7122 137.033 60.3288 137.154 60.0059C137.316 59.6829 137.538 59.4408 137.82 59.2793C138.103 59.1178 138.385 59.0371 138.668 59.0371C138.991 59.0371 139.213 59.138 139.334 59.3398C139.738 59.6224 140.242 60.1471 140.848 60.9141C141.493 61.681 142.24 62.4681 143.088 63.2754C143.936 64.0423 144.884 64.7285 145.934 65.334C147.023 65.8991 148.174 66.1211 149.385 66C150.999 65.556 151.988 64.7487 152.352 63.5781C152.755 62.3672 152.755 61.0755 152.352 59.7031C151.988 58.2904 151.363 56.8978 150.475 55.5254C149.627 54.1126 148.759 52.9622 147.871 52.0742C147.629 51.7917 147.205 51.2064 146.6 50.3184C145.994 49.4303 145.268 48.401 144.42 47.2305C143.613 46.0195 142.745 44.748 141.816 43.416C140.888 42.084 140 40.8327 139.152 39.6621C138.345 38.4512 137.618 37.4017 136.973 36.5137C136.367 35.6257 135.943 35.0404 135.701 34.7578C134.652 33.3854 133.986 31.8717 133.703 30.2168C133.461 28.5215 133.582 26.9674 134.066 25.5547C134.591 24.1016 135.499 22.8906 136.791 21.9219C138.083 20.9531 139.798 20.4889 141.938 20.5293C143.31 20.5293 144.561 20.9128 145.691 21.6797C146.862 22.4466 147.871 23.3145 148.719 24.2832C149.607 25.252 150.313 26.2207 150.838 27.1895C151.363 28.1582 151.665 28.8646 151.746 29.3086C151.867 29.8737 151.847 30.3783 151.686 30.8223C151.524 31.2663 151.282 31.6094 150.959 31.8516C150.676 32.0938 150.354 32.1947 149.99 32.1543C149.627 32.0736 149.304 31.8112 149.021 31.3672C148.941 31.1654 148.739 30.7214 148.416 30.0352C148.133 29.3086 147.669 28.5417 147.023 27.7344C146.418 26.9271 145.631 26.14 144.662 25.373C143.693 24.6061 142.503 24.041 141.09 23.6777C139.637 23.8796 138.587 24.3841 137.941 25.1914C137.296 25.9987 136.952 26.9271 136.912 27.9766C136.872 29.026 137.074 30.1159 137.518 31.2461C138.002 32.3763 138.607 33.3652 139.334 34.2129L153.502 53.5879C154.027 54.1934 154.511 54.9805 154.955 55.9492C155.399 56.918 155.742 57.9473 155.984 59.0371C156.227 60.127 156.327 61.2572 156.287 62.4277C156.247 63.5579 156.005 64.6074 155.561 65.5762C155.157 66.5449 154.511 67.3926 153.623 68.1191C152.735 68.8457 151.564 69.3301 150.111 69.5723ZM157.74 24.1621C157.014 24.0814 156.509 23.8594 156.227 23.4961C155.984 23.1328 155.883 22.7493 155.924 22.3457C155.964 21.9017 156.105 21.498 156.348 21.1348C156.63 20.7715 156.953 20.5495 157.316 20.4688L173.967 20.2871C174.492 20.3275 174.875 20.5293 175.117 20.8926C175.359 21.2155 175.48 21.5788 175.48 21.9824C175.48 22.3861 175.359 22.7695 175.117 23.1328C174.915 23.4961 174.572 23.7181 174.088 23.7988L167.246 24.2227L167.488 65.2734C167.408 65.7578 167.186 66.1211 166.822 66.3633C166.459 66.6458 166.035 66.8073 165.551 66.8477C165.107 66.9284 164.663 66.9082 164.219 66.7871C163.815 66.666 163.553 66.444 163.432 66.1211V24.3438L157.74 24.1621Z" fill="#00A3FF"/>
<path d="M181.844 28.077L178.15 30.2566C177.545 30.2566 177.242 29.9741 177.242 29.409L179.482 26.2L177.363 23.9598C177.161 23.8387 177.04 23.6974 177 23.5359C177 23.3745 177.04 23.213 177.121 23.0516C177.202 22.8901 177.323 22.7892 177.484 22.7488C177.646 22.6681 177.827 22.6883 178.029 22.8094L180.572 23.1121L182.268 20.3875C182.469 20.0646 182.752 19.9435 183.115 20.0242C183.479 20.1049 183.66 20.3875 183.66 20.8719L184.084 23.5965L187.111 24.0203C187.475 24.0203 187.697 24.0809 187.777 24.202C187.858 24.323 187.858 24.4845 187.777 24.6863C187.737 24.8478 187.636 25.0092 187.475 25.1707C187.354 25.2918 187.253 25.3523 187.172 25.3523L184.689 26.4422L185.477 29.8934H185.537C185.537 29.9337 185.537 30.0145 185.537 30.1355C185.537 30.2566 185.517 30.3777 185.477 30.4988C185.477 30.6199 185.416 30.7007 185.295 30.741C185.174 30.741 184.972 30.6805 184.689 30.5594L181.844 28.077Z" fill="#DB00FF"/>
</g>
<defs>
<linearGradient id="paint0_linear_5_15" x1="126.5" y1="0" x2="126.5" y2="92" gradientUnits="userSpaceOnUse">
<stop stop-color="#231835"/>
<stop offset="1"/>
</linearGradient>
<clipPath id="clip0_5_15">
<rect width="253" height="92" fill="white"/>
</clipPath>
</defs>
</svg>
