<svg width="370" height="92" viewBox="0 0 370 92" fill="none" xmlns="http://www.w3.org/2000/svg">
<g clip-path="url(#clip0_5_18)">
<path d="M34.1973 44.9297L28.8691 45.8984C28.304 45.8984 27.86 45.737 27.5371 45.4141C27.2142 45.0508 27.0124 44.6673 26.9316 44.2637C26.8913 43.8197 26.9922 43.416 27.2344 43.0527C27.4766 42.6895 27.9004 42.5078 28.5059 42.5078L34.6816 41.418L31.1094 36.2109C30.7461 35.8073 30.6048 35.3835 30.6855 34.9395C30.8066 34.4954 31.0286 34.1523 31.3516 33.9102C31.7148 33.668 32.1387 33.5671 32.623 33.6074C33.1074 33.6074 33.5514 33.8496 33.9551 34.334L37.043 38.7539L39.1621 34.0918C39.9694 33.6478 40.5951 33.4661 41.0391 33.5469C41.5234 33.5872 41.8665 33.7487 42.0684 34.0312C42.3105 34.3542 42.4518 34.7982 42.4922 35.3633L40.0703 40.5098L45.8223 39.4805C46.6296 40.0052 47.1139 40.4694 47.2754 40.873C47.4368 41.2767 47.457 41.64 47.3359 41.9629C47.1745 42.3262 46.8516 42.6693 46.3672 42.9922L40.6152 43.9004L43.8848 48.5625C44.0059 49.5312 43.9453 50.2174 43.7031 50.6211C43.4609 50.9844 43.1784 51.2064 42.8555 51.2871C42.4518 51.4082 41.9876 51.3678 41.4629 51.166L37.6484 45.7168L34.9844 51.3477C34.7018 51.832 34.3385 52.1146 33.8945 52.1953C33.4909 52.2357 33.1074 52.1549 32.7441 51.9531C32.3809 51.7109 32.1185 51.388 31.957 50.9844C31.7956 50.5404 31.8561 50.0358 32.1387 49.4707L34.1973 44.9297ZM332.936 44.9297L327.607 45.8984C327.042 45.8984 326.598 45.737 326.275 45.4141C325.952 45.0508 325.751 44.6673 325.67 44.2637C325.63 43.8197 325.73 43.416 325.973 43.0527C326.215 42.6895 326.639 42.5078 327.244 42.5078L333.42 41.418L329.848 36.2109C329.484 35.8073 329.343 35.3835 329.424 34.9395C329.545 34.4954 329.767 34.1523 330.09 33.9102C330.453 33.668 330.877 33.5671 331.361 33.6074C331.846 33.6074 332.29 33.8496 332.693 34.334L335.781 38.7539L337.9 34.0918C338.708 33.6478 339.333 33.4661 339.777 33.5469C340.262 33.5872 340.605 33.7487 340.807 34.0312C341.049 34.3542 341.19 34.7982 341.23 35.3633L338.809 40.5098L344.561 39.4805C345.368 40.0052 345.852 40.4694 346.014 40.873C346.175 41.2767 346.195 41.64 346.074 41.9629C345.913 42.3262 345.59 42.6693 345.105 42.9922L339.354 43.9004L342.623 48.5625C342.744 49.5312 342.684 50.2174 342.441 50.6211C342.199 50.9844 341.917 51.2064 341.594 51.2871C341.19 51.4082 340.726 51.3678 340.201 51.166L336.387 45.7168L333.723 51.3477C333.44 51.832 333.077 52.1146 332.633 52.1953C332.229 52.2357 331.846 52.1549 331.482 51.9531C331.119 51.7109 330.857 51.388 330.695 50.9844C330.534 50.5404 330.594 50.0358 330.877 49.4707L332.936 44.9297Z" fill="#DB00FF"/>
<path d="M76.2773 51.1055C76.1966 48.4414 76.4186 45.8379 76.9434 43.2949C77.4681 40.7116 78.235 38.2695 79.2441 35.9688C80.2936 33.668 81.5449 31.5488 82.998 29.6113C84.4915 27.6738 86.1263 26.0189 87.9023 24.6465C89.3555 23.4759 91.0104 22.5273 92.8672 21.8008C94.7643 21.0339 96.4798 20.5898 98.0137 20.4688C98.4577 20.388 98.821 20.6504 99.1035 21.2559C99.3861 21.8613 99.2448 22.7493 98.6797 23.9199C96.7826 24.041 94.946 24.6061 93.1699 25.6152C91.3939 26.6243 89.7389 27.8353 88.2051 29.248C85.6621 31.6699 83.6237 34.6973 82.0898 38.3301C80.5964 41.9225 79.7891 46.0397 79.668 50.6816C79.5872 53.2246 79.9707 55.4043 80.8184 57.2207C81.666 58.9967 82.7962 60.3893 84.209 61.3984C85.6217 62.4076 87.2363 63.013 89.0527 63.2148C90.9095 63.3763 92.7865 63.1139 94.6836 62.4277C95.7331 62.0645 96.7422 61.5599 97.7109 60.9141C98.7201 60.2682 99.8301 59.2389 101.041 57.8262C101.364 57.6647 101.707 57.6445 102.07 57.7656C102.474 57.8867 102.797 58.1087 103.039 58.4316C103.281 58.7142 103.382 59.0775 103.342 59.5215C103.342 59.9251 103.12 60.3691 102.676 60.8535C102.353 61.1764 101.868 61.6406 101.223 62.2461C100.617 62.8112 99.8704 63.4167 98.9824 64.0625C98.1348 64.668 97.1862 65.2533 96.1367 65.8184C95.0872 66.3431 93.9974 66.6862 92.8672 66.8477C92.0195 66.9688 91.0306 67.0293 89.9004 67.0293C88.7702 67.0293 87.5996 66.8678 86.3887 66.5449C85.1777 66.222 83.987 65.7174 82.8164 65.0312C81.6458 64.3451 80.5762 63.3965 79.6074 62.1855C78.679 60.9746 77.9121 59.4609 77.3066 57.6445C76.7012 55.8281 76.3581 53.6484 76.2773 51.1055ZM104.977 42.1445C104.855 40.0456 105.037 37.7448 105.521 35.2422C106.006 32.6992 106.793 30.3379 107.883 28.1582C109.013 25.9785 110.446 24.1621 112.182 22.709C113.917 21.2559 115.976 20.5697 118.357 20.6504C119.609 20.7715 120.699 21.1751 121.627 21.8613C122.596 22.5475 123.403 23.375 124.049 24.3438C124.695 25.3125 125.179 26.362 125.502 27.4922C125.865 28.582 126.047 29.6315 126.047 30.6406C126.087 31.6497 125.946 32.5579 125.623 33.3652C125.34 34.1322 124.896 34.6367 124.291 34.8789C123.403 35.2018 122.132 35.4238 120.477 35.5449C118.862 35.666 117.227 35.7467 115.572 35.7871C113.958 35.8275 112.484 35.8678 111.152 35.9082C109.861 35.9082 109.094 35.9284 108.852 35.9688C108.408 38.1081 108.246 40.3281 108.367 42.6289C108.529 44.9297 108.892 47.1497 109.457 49.2891C110.062 51.4284 110.85 53.4264 111.818 55.2832C112.827 57.0996 113.978 58.6335 115.27 59.8848C116.602 61.1361 118.055 62.0039 119.629 62.4883C121.203 62.9727 122.858 62.9323 124.594 62.3672C124.917 62.2461 125.199 62.2865 125.441 62.4883C125.724 62.6901 125.926 62.9727 126.047 63.3359C126.168 63.6589 126.188 64.0221 126.107 64.4258C126.027 64.8294 125.805 65.1927 125.441 65.5156C122.818 66.2018 120.497 66.2826 118.479 65.7578C116.46 65.1927 114.704 64.2643 113.211 62.9727C111.717 61.6406 110.466 60.0462 109.457 58.1895C108.448 56.3327 107.62 54.4355 106.975 52.498C106.329 50.5202 105.844 48.623 105.521 46.8066C105.239 44.9499 105.057 43.3958 104.977 42.1445ZM118.055 23.9805C117.207 23.9401 116.319 24.263 115.391 24.9492C114.462 25.6354 113.615 26.4427 112.848 27.3711C112.081 28.2995 111.435 29.248 110.91 30.2168C110.426 31.1855 110.184 31.9525 110.184 32.5176C110.547 32.5579 111.273 32.5983 112.363 32.6387C113.493 32.6387 114.704 32.6185 115.996 32.5781C117.328 32.4974 118.579 32.3965 119.75 32.2754C120.921 32.1543 121.728 31.9727 122.172 31.7305C122.495 30.9232 122.535 30.0352 122.293 29.0664C122.091 28.0977 121.748 27.2298 121.264 26.4629C120.779 25.6556 120.234 25.0098 119.629 24.5254C119.023 24.041 118.499 23.8594 118.055 23.9805ZM242.297 64.6074C241.772 65.4147 241.268 65.8789 240.783 66C240.299 66.1615 239.875 66.1615 239.512 66C239.068 65.8385 238.664 65.4954 238.301 64.9707L238.482 34.7578C238.482 34.2331 238.684 33.8496 239.088 33.6074C239.492 33.3249 239.915 33.2038 240.359 33.2441C240.844 33.2441 241.288 33.4258 241.691 33.7891C242.095 34.112 242.297 34.5762 242.297 35.1816V64.6074ZM240.238 28.2793L236.545 30.459C235.939 30.459 235.637 30.1764 235.637 29.6113L237.877 26.4023L235.758 24.1621C235.556 24.041 235.435 23.8997 235.395 23.7383C235.395 23.5768 235.435 23.4154 235.516 23.2539C235.596 23.0924 235.717 22.9915 235.879 22.9512C236.04 22.8704 236.222 22.8906 236.424 23.0117L238.967 23.3145L240.662 20.5898C240.864 20.2669 241.146 20.1458 241.51 20.2266C241.873 20.3073 242.055 20.5898 242.055 21.0742L242.479 23.7988L245.506 24.2227C245.869 24.2227 246.091 24.2832 246.172 24.4043C246.253 24.5254 246.253 24.6868 246.172 24.8887C246.132 25.0501 246.031 25.2116 245.869 25.373C245.748 25.4941 245.647 25.5547 245.566 25.5547L243.084 26.6445L243.871 30.0957H243.932C243.932 30.1361 243.932 30.2168 243.932 30.3379C243.932 30.459 243.911 30.5801 243.871 30.7012C243.871 30.8223 243.811 30.903 243.689 30.9434C243.568 30.9434 243.367 30.8828 243.084 30.7617L240.238 28.2793ZM273.297 60.9746C271.238 62.9928 269.139 64.5872 267 65.7578C264.861 66.9284 262.419 67.5137 259.674 67.5137C257.938 67.5137 256.344 67.2917 254.891 66.8477C253.478 66.4036 252.247 65.7376 251.197 64.8496C250.188 63.9616 249.401 62.8516 248.836 61.5195C248.271 60.1875 247.988 58.6133 247.988 56.7969C247.948 54.819 248.251 52.9622 248.896 51.2266C249.583 49.4505 250.511 47.8561 251.682 46.4434C252.852 45.0306 254.204 43.8398 255.738 42.8711C257.312 41.862 258.967 41.1354 260.703 40.6914C262.439 40.207 264.215 40.0254 266.031 40.1465C267.848 40.2676 269.604 40.7318 271.299 41.5391C271.299 41.0143 271.299 40.2474 271.299 39.2383C271.299 38.1888 271.279 37.0384 271.238 35.7871C271.238 34.5358 271.198 33.2643 271.117 31.9727C271.036 30.6406 270.895 29.4297 270.693 28.3398C270.532 27.25 270.29 26.362 269.967 25.6758C269.684 24.9896 269.321 24.6465 268.877 24.6465C267.868 24.7676 266.919 25.1309 266.031 25.7363C265.143 26.3014 264.336 27.0078 263.609 27.8555C262.883 28.6628 262.217 29.5306 261.611 30.459C261.046 31.3874 260.562 32.2552 260.158 33.0625C259.755 33.8294 259.432 34.4753 259.189 35C258.988 35.5247 258.867 35.8073 258.826 35.8477C258.624 36.1302 258.342 36.3118 257.979 36.3926C257.656 36.4733 257.333 36.4531 257.01 36.332C256.727 36.2109 256.465 35.9889 256.223 35.666C256.021 35.3431 255.92 34.9193 255.92 34.3945C256.202 32.9414 256.808 31.4277 257.736 29.8535C258.665 28.2793 259.734 26.8464 260.945 25.5547C262.197 24.263 263.529 23.1934 264.941 22.3457C266.354 21.498 267.666 21.0742 268.877 21.0742C270.411 20.9531 271.602 21.5182 272.449 22.7695C273.337 23.9805 273.983 25.5749 274.387 27.5527C274.79 29.4902 275.033 31.6699 275.113 34.0918C275.234 36.4733 275.295 38.7943 275.295 41.0547C275.335 43.2747 275.376 45.2728 275.416 47.0488C275.497 48.8249 275.719 50.0762 276.082 50.8027C276.647 51.1257 277.01 51.4284 277.172 51.7109C277.374 51.9935 277.475 52.377 277.475 52.8613C277.475 53.4668 277.313 54.0117 276.99 54.4961C276.667 54.9401 276.506 55.4648 276.506 56.0703C276.587 58.3711 276.748 60.571 276.99 62.6699C277.232 64.7689 277.717 66.9486 278.443 69.209C278.443 70.0566 278.242 70.6419 277.838 70.9648C277.475 71.3281 277.031 71.4694 276.506 71.3887C276.021 71.3079 275.537 71.0456 275.053 70.6016C274.609 70.1576 274.326 69.5723 274.205 68.8457C274.165 68.5632 274.084 68.0384 273.963 67.2715C273.882 66.5449 273.781 65.778 273.66 64.9707C273.579 64.123 273.499 63.3359 273.418 62.6094C273.337 61.8424 273.297 61.2975 273.297 60.9746ZM251.561 56.373C251.561 57.6647 251.803 58.7747 252.287 59.7031C252.812 60.6315 253.458 61.3984 254.225 62.0039C255.032 62.569 255.92 62.9928 256.889 63.2754C257.898 63.5176 258.887 63.6185 259.855 63.5781C261.47 63.5781 262.903 63.3359 264.154 62.8516C265.406 62.3672 266.536 61.7012 267.545 60.8535C268.554 60.0059 269.442 59.0169 270.209 57.8867C270.976 56.7161 271.702 55.4648 272.389 54.1328C272.389 52.5182 272.288 51.0853 272.086 49.834C271.884 48.5423 271.48 47.4525 270.875 46.5645C270.31 45.6764 269.503 45.0104 268.453 44.5664C267.444 44.082 266.092 43.8398 264.396 43.8398C262.742 43.8398 261.147 44.1829 259.613 44.8691C258.079 45.515 256.707 46.4232 255.496 47.5938C254.326 48.724 253.377 50.056 252.65 51.5898C251.924 53.0833 251.561 54.6777 251.561 56.373ZM285.891 73.1445C285.204 73.1042 284.68 72.9225 284.316 72.5996C283.953 72.3171 283.691 71.9538 283.529 71.5098C283.408 71.1061 283.368 70.6621 283.408 70.1777C283.449 69.7337 283.529 69.3099 283.65 68.9062L283.348 19.8633C283.348 19.4596 283.509 19.0762 283.832 18.7129C284.195 18.3496 284.579 18.1074 284.982 17.9863C285.426 17.8652 285.83 17.9258 286.193 18.168C286.597 18.4102 286.859 18.9349 286.98 19.7422V69.5723L292.248 69.6934C292.732 70.097 292.995 70.5007 293.035 70.9043C293.076 71.3483 292.995 71.7318 292.793 72.0547C292.591 72.3776 292.329 72.64 292.006 72.8418C291.723 73.084 291.481 73.2051 291.279 73.2051C290.674 73.2051 290.149 73.2051 289.705 73.2051C289.301 73.2051 288.898 73.1849 288.494 73.1445C288.131 73.1445 287.747 73.1445 287.344 73.1445C286.94 73.1445 286.456 73.1445 285.891 73.1445Z" fill="white"/>
<path d="M129.316 26.0391C129.68 25.6354 130.063 25.3327 130.467 25.1309C130.911 24.8887 131.314 24.7676 131.678 24.7676C132.081 24.7676 132.404 24.8887 132.646 25.1309C132.929 25.3327 133.09 25.6758 133.131 26.1602L133.191 30.0352C135.371 28.7435 137.611 27.4922 139.912 26.2812C142.253 25.0703 144.554 24.0208 146.814 23.1328C149.115 22.2044 151.355 21.5182 153.535 21.0742C155.755 20.5898 157.854 20.4284 159.832 20.5898C162.335 20.8724 164.191 21.8411 165.402 23.4961C166.613 25.151 167.017 27.1289 166.613 29.4297C166.29 31.0039 165.624 32.457 164.615 33.7891C163.646 35.1211 162.557 36.332 161.346 37.4219C160.135 38.4714 158.904 39.3997 157.652 40.207C156.441 41.0143 155.473 41.7005 154.746 42.2656L161.346 66.1816C161.265 66.5449 161.043 66.8477 160.68 67.0898C160.316 67.332 159.913 67.4935 159.469 67.5742C159.025 67.6549 158.601 67.6348 158.197 67.5137C157.794 67.4329 157.531 67.2109 157.41 66.8477L151.234 43.7188C148.288 45.0911 145.785 46.2214 143.727 47.1094C141.708 47.9974 140.033 48.724 138.701 49.2891C137.369 49.8138 136.34 50.2174 135.613 50.5C134.927 50.7826 134.402 50.9844 134.039 51.1055C133.716 51.2266 133.514 51.3073 133.434 51.3477C133.353 51.388 133.312 51.4688 133.312 51.5898L133.797 68.0586C133.716 68.4219 133.494 68.6842 133.131 68.8457C132.768 69.0475 132.364 69.1686 131.92 69.209C131.516 69.2493 131.133 69.209 130.77 69.0879C130.447 68.9668 130.265 68.7852 130.225 68.543L129.316 26.0391ZM133.312 46.625C134.12 46.3424 135.311 45.9388 136.885 45.4141C138.499 44.849 140.275 44.1829 142.213 43.416C144.15 42.6491 146.169 41.7812 148.268 40.8125C150.367 39.8034 152.344 38.7135 154.201 37.543C156.098 36.332 157.773 35.0404 159.227 33.668C160.68 32.2552 161.729 30.7617 162.375 29.1875C162.698 27.8958 162.617 26.7454 162.133 25.7363C161.689 24.7272 160.882 24.1419 159.711 23.9805C157.975 23.7383 156.018 23.9199 153.838 24.5254C151.699 25.0905 149.438 25.918 147.057 27.0078C144.715 28.0573 142.354 29.2884 139.973 30.7012C137.591 32.1139 135.331 33.5065 133.191 34.8789L133.312 46.625ZM174.969 68.4219C174.848 69.0273 174.605 69.4108 174.242 69.5723C173.919 69.7741 173.576 69.8346 173.213 69.7539C172.85 69.7135 172.507 69.5723 172.184 69.3301C171.861 69.0879 171.659 68.8255 171.578 68.543L171.336 19.8633C171.336 19.5 171.477 19.1569 171.76 18.834C172.083 18.4707 172.426 18.2083 172.789 18.0469C173.193 17.8854 173.576 17.8854 173.939 18.0469C174.303 18.168 174.585 18.5312 174.787 19.1367L186.291 19.2578C186.775 19.6615 187.078 20.0651 187.199 20.4688C187.32 20.8724 187.34 21.2357 187.26 21.5586C187.179 21.8815 187.018 22.1641 186.775 22.4062C186.574 22.6081 186.372 22.709 186.17 22.709C185.807 22.709 185.06 22.709 183.93 22.709C182.799 22.709 181.609 22.709 180.357 22.709C179.106 22.709 177.956 22.709 176.906 22.709C175.857 22.6686 175.211 22.6484 174.969 22.6484V42.5078L184.172 42.6895C184.656 43.0931 184.959 43.4967 185.08 43.9004C185.201 44.304 185.201 44.6673 185.08 44.9902C184.999 45.3132 184.838 45.5755 184.596 45.7773C184.394 45.9792 184.192 46.0801 183.99 46.0801C183.506 46.0801 182.82 46.1003 181.932 46.1406C181.084 46.1406 180.196 46.1406 179.268 46.1406C178.339 46.1406 177.471 46.1406 176.664 46.1406C175.857 46.1003 175.292 46.0801 174.969 46.0801V64.8496L187.199 64.9102C187.684 65.3138 187.966 65.7174 188.047 66.1211C188.168 66.5247 188.168 66.888 188.047 67.2109C187.966 67.5339 187.805 67.7962 187.562 67.998C187.32 68.2402 187.098 68.3613 186.896 68.3613C186.412 68.3613 185.585 68.3613 184.414 68.3613C183.243 68.4017 182.012 68.4219 180.721 68.4219C179.429 68.4219 178.218 68.4219 177.088 68.4219C175.998 68.4219 175.292 68.4219 174.969 68.4219ZM208.209 69.5723C206.715 69.9355 205.262 69.875 203.85 69.3906C202.477 68.9466 201.206 68.2604 200.035 67.332C198.905 66.444 197.916 65.4349 197.068 64.3047C196.261 63.1745 195.676 62.125 195.312 61.1562C195.151 60.7122 195.131 60.3288 195.252 60.0059C195.413 59.6829 195.635 59.4408 195.918 59.2793C196.201 59.1178 196.483 59.0371 196.766 59.0371C197.089 59.0371 197.311 59.138 197.432 59.3398C197.835 59.6224 198.34 60.1471 198.945 60.9141C199.591 61.681 200.338 62.4681 201.186 63.2754C202.033 64.0423 202.982 64.7285 204.031 65.334C205.121 65.8991 206.271 66.1211 207.482 66C209.097 65.556 210.086 64.7487 210.449 63.5781C210.853 62.3672 210.853 61.0755 210.449 59.7031C210.086 58.2904 209.46 56.8978 208.572 55.5254C207.725 54.1126 206.857 52.9622 205.969 52.0742C205.727 51.7917 205.303 51.2064 204.697 50.3184C204.092 49.4303 203.365 48.401 202.518 47.2305C201.71 46.0195 200.842 44.748 199.914 43.416C198.986 42.084 198.098 40.8327 197.25 39.6621C196.443 38.4512 195.716 37.4017 195.07 36.5137C194.465 35.6257 194.041 35.0404 193.799 34.7578C192.749 33.3854 192.083 31.8717 191.801 30.2168C191.559 28.5215 191.68 26.9674 192.164 25.5547C192.689 24.1016 193.597 22.8906 194.889 21.9219C196.18 20.9531 197.896 20.4889 200.035 20.5293C201.408 20.5293 202.659 20.9128 203.789 21.6797C204.96 22.4466 205.969 23.3145 206.816 24.2832C207.704 25.252 208.411 26.2207 208.936 27.1895C209.46 28.1582 209.763 28.8646 209.844 29.3086C209.965 29.8737 209.945 30.3783 209.783 30.8223C209.622 31.2663 209.38 31.6094 209.057 31.8516C208.774 32.0938 208.451 32.1947 208.088 32.1543C207.725 32.0736 207.402 31.8112 207.119 31.3672C207.038 31.1654 206.837 30.7214 206.514 30.0352C206.231 29.3086 205.767 28.5417 205.121 27.7344C204.516 26.9271 203.729 26.14 202.76 25.373C201.791 24.6061 200.6 24.041 199.188 23.6777C197.734 23.8796 196.685 24.3841 196.039 25.1914C195.393 25.9987 195.05 26.9271 195.01 27.9766C194.969 29.026 195.171 30.1159 195.615 31.2461C196.1 32.3763 196.705 33.3652 197.432 34.2129L211.6 53.5879C212.124 54.1934 212.609 54.9805 213.053 55.9492C213.497 56.918 213.84 57.9473 214.082 59.0371C214.324 60.127 214.425 61.2572 214.385 62.4277C214.344 63.5579 214.102 64.6074 213.658 65.5762C213.255 66.5449 212.609 67.3926 211.721 68.1191C210.833 68.8457 209.662 69.3301 208.209 69.5723ZM215.838 24.1621C215.111 24.0814 214.607 23.8594 214.324 23.4961C214.082 23.1328 213.981 22.7493 214.021 22.3457C214.062 21.9017 214.203 21.498 214.445 21.1348C214.728 20.7715 215.051 20.5495 215.414 20.4688L232.064 20.2871C232.589 20.3275 232.973 20.5293 233.215 20.8926C233.457 21.2155 233.578 21.5788 233.578 21.9824C233.578 22.3861 233.457 22.7695 233.215 23.1328C233.013 23.4961 232.67 23.7181 232.186 23.7988L225.344 24.2227L225.586 65.2734C225.505 65.7578 225.283 66.1211 224.92 66.3633C224.557 66.6458 224.133 66.8073 223.648 66.8477C223.204 66.9284 222.76 66.9082 222.316 66.7871C221.913 66.666 221.65 66.444 221.529 66.1211V24.3438L215.838 24.1621Z" fill="#FFF500"/>
<path d="M239.844 28.077L236.15 30.2566C235.545 30.2566 235.242 29.9741 235.242 29.409L237.482 26.2L235.363 23.9598C235.161 23.8387 235.04 23.6974 235 23.5359C235 23.3745 235.04 23.213 235.121 23.0516C235.202 22.8901 235.323 22.7892 235.484 22.7488C235.646 22.6681 235.827 22.6883 236.029 22.8094L238.572 23.1121L240.268 20.3875C240.469 20.0646 240.752 19.9435 241.115 20.0242C241.479 20.1049 241.66 20.3875 241.66 20.8719L242.084 23.5965L245.111 24.0203C245.475 24.0203 245.697 24.0809 245.777 24.202C245.858 24.323 245.858 24.4845 245.777 24.6863C245.737 24.8478 245.636 25.0092 245.475 25.1707C245.354 25.2918 245.253 25.3523 245.172 25.3523L242.689 26.4422L243.477 29.8934H243.537C243.537 29.9337 243.537 30.0145 243.537 30.1355C243.537 30.2566 243.517 30.3777 243.477 30.4988C243.477 30.6199 243.416 30.7007 243.295 30.741C243.174 30.741 242.972 30.6805 242.689 30.5594L239.844 28.077Z" fill="#DB00FF"/>
</g>
<defs>
<clipPath id="clip0_5_18">
<rect width="370" height="92" fill="white"/>
</clipPath>
</defs>
</svg>
